<svg xmlns="http://www.w3.org/2000/svg" width="80" height="69" viewBox="0 0 80 69">
  <g fill="none" fill-rule="evenodd" transform="translate(2 1)">
    <g fill="#FFF">
      <path d="M75.6305556 28.4616L75.6305556 2.5728C75.6305556 1.4472 74.6805556.4824 73.5722222.4824L73.5194444.4824 2.53333333.4824 2.48055556.4824C1.31944444.4824.422222222 1.4472.422222222 2.5728L.422222222 28.4616.475 28.5152.475 47.168.422222222 47.168.422222222 53.6C.422222222 54.8328 1.68888889 56.2264 2.90277778 56.2264L29.6083333 56.2264 46.4444444 56.2264 73.15 56.2264C74.3638889 56.2264 75.6305556 54.8328 75.6305556 53.6L75.6305556 47.168 75.5777778 47.168 75.6305556 28.4616zM26.2305556 66.196C26.9166667 65.928 27.7083333 65.5528 28.1305556 65.2848 28.2361111 65.2312 28.3416667 65.1776 28.4472222 65.124L26.2305556 66.196z"/>
      <path fill-rule="nonzero" d="M46.55,63.1944 C46.2333333,61.4792 46.4972222,58.0488 46.3916667,56.3872 C46.3916667,56.3336 46.3916667,56.3336 46.3916667,56.28 L38.0527778,56.3336 L29.7138889,56.28 C29.7138889,56.3336 29.7138889,56.3336 29.7138889,56.3872 C29.6083333,58.0488 29.8722222,61.4792 29.5555556,63.1944 C29.2916667,64.588 29.0805556,64.8024 28.5,65.124 L29.6611111,64.588 L29.6611111,64.9632 L29.2916667,64.9632 L29.2916667,66.1424 L30.7694444,66.1424 L45.9694444,66.1424 L47.1833333,66.1424 L47.1833333,64.9632 L46.4444444,64.9632 L46.4444444,64.588 L47.6055556,65.124 C47.025,64.8024 46.8138889,64.5344 46.55,63.1944 Z M30.6638889,63.9984 L30.6638889,64.1056 L30.4527778,64.1056 L30.6638889,63.9984 Z"/>
      <path d="M47.6055556,65.124 C47.7111111,65.1776 47.8166667,65.2312 47.9222222,65.2848 C48.3972222,65.5528 49.1888889,65.928 49.8222222,66.196 L47.6055556,65.124 Z"/>
    </g>
    <g stroke="#484F59" stroke-linecap="round" stroke-linejoin="round" stroke-width="3" transform="translate(0 .536)">
      <path d="M24.225 65.66L51.9861111 65.66M75.6305556 28.0328L75.6305556 2.144C75.6305556 1.0184 74.6805556.0536 73.5722222.0536L2.58611111.0536C1.425.0536.527777778 1.0184.527777778 2.144L.527777778 46.7928 45.9694444 46.7928"/>
      <polyline points="71.567 23.959 71.567 4.395 4.539 4.395 4.539 42.451 45.6 42.451"/>
      <path d="M46.4972222 46.7392L.475 46.7392.475 53.1712C.475 54.404 1.74166667 55.7976 2.95555556 55.7976L46.4972222 55.7976M46.3916667 55.9048L29.7138889 55.7976C29.6083333 57.4056 29.8722222 60.9432 29.5027778 62.712 29.1861111 64.32 28.975 64.3736 28.1305556 64.8024 27.6555556 65.0704 26.8638889 65.4456 26.2305556 65.7136"/>
      <path d="M51.9333333 65.66L24.1194444 65.66M.475 28.0328L.475 2.144C.475 1.0184 1.425.0536 2.53333333.0536L73.5722222.0536C74.7333333.0536 75.6305556 1.0184 75.6305556 2.144L75.6305556 46.7928 30.1888889 46.7928"/>
      <polyline points="4.539 23.959 4.539 4.395 71.619 4.395 71.619 42.451 30.558 42.451"/>
      <path d="M29.6611111 46.7392L75.6833333 46.7392 75.6833333 53.1712C75.6833333 54.404 74.4166667 55.7976 73.2027778 55.7976L29.6611111 55.7976M29.7138889 55.9048L46.3916667 55.7976C46.4972222 57.4056 46.2333333 60.9432 46.6027778 62.712 46.9194444 64.32 47.1305556 64.3736 47.975 64.8024 48.45 65.0704 49.2416667 65.4456 49.875 65.7136"/>
    </g>
    <path stroke="#484F59" stroke-linecap="round" stroke-linejoin="round" stroke-width="3" d="M.105555556 17.6344L50.7194444 17.6344M.897222222 0L.897222222 17.5272M7.91666667 4.1272L7.91666667 17.5272M14.8833333 8.7368L14.8833333 17.5272M21.9027778 10.5592L21.9027778 17.5272M28.9222222 4.1272L28.9222222 17.5272M35.9416667 3.5912L35.9416667 17.5272M42.9611111 8.0936L42.9611111 17.5272M49.9805556 8.7368L49.9805556 17.5272" transform="translate(12.667 19.296)"/>
    <path stroke="#484F59" stroke-linecap="round" stroke-linejoin="round" stroke-width="3" d="M13.9861111,12.864 C22.1138889,12.864 22.1138889,19.3496 30.1888889,19.3496 C38.3166667,19.3496 38.3166667,12.864 46.3916667,12.864 C54.4666667,12.864 54.5194444,19.3496 62.5944444,19.3496"/>
    <g transform="translate(32.194 21.976)">
      <path fill="#FFF" d="M34.5694444,40.2 L25.0166667,25.9424 L24.3305556,26.4248 L22.325,23.5304 C24.4361111,21.5472 25.9138889,18.9744 26.4416667,16.08 C27.1277778,12.5424 26.3888889,8.9512 24.3833333,5.9496 C22.3777778,2.948 19.3694444,0.9648 15.8861111,0.268 C12.4027778,-0.4288 8.81388889,0.3216 5.91111111,2.412 C2.95555556,4.4488 1.00277778,7.504 0.316666667,11.0416 C-1.05555556,18.3848 3.69444444,25.46 10.925,26.8536 C13.775,27.3896 16.6777778,26.9608 19.2638889,25.728 L21.0583333,28.408 L21.2166667,28.676 L20.5305556,29.1584 L30.0833333,43.416 C30.3472222,43.7912 30.5583333,44.1664 30.8222222,44.488 C32.9333333,44.9168 34.9388889,43.5232 35.3083333,41.3792 C35.0444444,40.9504 34.8333333,40.5752 34.5694444,40.2 Z"/>
      <path fill="#FFF" d="M23.1694444,6.8072 C26.8111111,12.2744 25.4388889,19.7248 20.0555556,23.4768 C14.6722222,27.1752 7.33611111,25.7816 3.64166667,20.3144 C5.55111512e-15,14.8472 1.37222222,7.3968 6.75555556,3.6448 C12.1388889,-0.1072 19.475,1.34 23.1694444,6.8072 Z"/>
      <g stroke="#484F59" stroke-linecap="round" stroke-linejoin="round">
        <path stroke-width="3" d="M21.0055556 28.3544L18.7888889 24.9776M21.9027778 22.8336L24.1722222 26.1568"/>
        <path fill="#FFF" fill-rule="nonzero" stroke-width="3" d="M24.3833333,5.9496 C22.3777778,2.948 19.3694444,0.9648 15.8861111,0.268 C12.4027778,-0.4288 8.81388889,0.3216 5.91111111,2.412 C2.95555556,4.4488 1.00277778,7.504 0.316666667,11.0416 C-1.05555556,18.3848 3.69444444,25.46 10.925,26.8536 C14.4083333,27.5504 17.9972222,26.7464 20.9,24.7096 C23.8555556,22.6728 25.8083333,19.6176 26.4944444,16.08 C27.1277778,12.5424 26.3888889,8.8976 24.3833333,5.9496 Z M19.1583333,22.1368 C16.8888889,23.6912 14.1444444,24.2808 11.4527778,23.7984 C5.91111111,22.7264 2.26944444,17.2592 3.325,11.6312 C3.85277778,8.8976 5.33055556,6.5392 7.6,4.9848 C9.86944444,3.4304 12.6138889,2.8408 15.3055556,3.3232 C17.9972222,3.8592 20.3194444,5.4136 21.85,7.7184 C23.3805556,10.0232 23.9611111,12.8104 23.4333333,15.4904 C22.9583333,18.224 21.4277778,20.5824 19.1583333,22.1368 Z"/>
        <polygon fill="#FFF" stroke-width="3" points="24.844 26.108 30.307 26.069 30.184 43.244 24.721 43.284" transform="rotate(-34.229 27.514 34.676)"/>
        <path fill="#FFF" stroke-width="3" d="M35.3083333,41.3256 C34.8861111,43.416 32.8805556,44.8096 30.8222222,44.4344 C30.5583333,44.0592 30.3472222,43.684 30.0833333,43.3624 C31.5611111,42.344 33.0916667,41.272 34.5694444,40.2536 C34.8333333,40.5752 35.0444444,40.9504 35.3083333,41.3256 Z"/>
      </g>
    </g>
  </g>
</svg>
