<svg xmlns="http://www.w3.org/2000/svg" width="81" height="72" viewBox="0 0 81 72">
  <g fill="none" fill-rule="evenodd" transform="translate(2 2)">
    <g fill="#FFF">
      <path d="M26.4226027 67.4063492C27.1082192 67.0825397 27.8993151 66.7587302 28.3739726 66.4888889 28.4794521 66.4349206 28.5849315 66.3809524 28.690411 66.3269841L26.4226027 67.4063492zM48.0986301 66.2730159C48.2041096 66.3269841 48.309589 66.3809524 48.4150685 66.4349206 48.889726 66.7047619 49.6808219 67.0825397 50.3664384 67.352381L48.0986301 66.2730159zM76.5253425 28.8190476L76.5253425 2.37460317C76.5253425 1.18730159 75.5760274.215873016 74.4157534.215873016L74.3630137.215873016 2.37328767.215873016 2.32054795.215873016C1.16027397.215873016.210958904 1.18730159.210958904 2.37460317L.210958904 28.8190476.26369863 28.8730159.26369863 47.9777778.210958904 47.9777778.210958904 54.5619048C.210958904 55.8031746 1.47671233 57.2063492 2.68972603 57.2063492L29.7979452 57.2063492 46.8856164 57.2063492 73.9938356 57.2063492C75.2068493 57.2063492 76.4726027 55.8031746 76.4726027 54.5619048L76.4726027 47.9777778 76.419863 47.9777778 76.5253425 28.8190476z"/>
      <path fill-rule="nonzero" d="M46.9910959,64.2761905 C46.6746575,62.5492063 46.9383562,58.9873016 46.780137,57.3142857 C46.780137,57.2603175 46.780137,57.2603175 46.780137,57.2063492 L38.3417808,57.2603175 L29.9034247,57.2063492 C29.9034247,57.2603175 29.9034247,57.2603175 29.9034247,57.3142857 C29.7979452,58.9873016 30.0616438,62.4952381 29.6924658,64.2761905 C29.4287671,65.6793651 29.2178082,65.8952381 28.6376712,66.2730159 L29.7979452,65.6793651 L29.7979452,66.0571429 L29.4287671,66.0571429 L29.4287671,67.2444444 L30.9054795,67.2444444 L46.3054795,67.2444444 L47.5712329,67.2444444 L47.5712329,66.0571429 L46.8856164,66.0571429 L46.8856164,65.6793651 L48.0458904,66.2730159 C47.4657534,65.9492063 47.3075342,65.6793651 46.9910959,64.2761905 Z M30.9582192,65.1396825 L30.9582192,65.247619 L30.7472603,65.247619 L30.9582192,65.1396825 Z"/>
    </g>
    <g stroke="#484F59" stroke-linejoin="round" stroke-width="3">
      <path stroke-linecap="square" d="M46.8328767 57.4222222L29.9034247 57.3142857C29.7452055 58.9333333 30.0616438 62.6031746 29.6924658 64.384127 29.3760274 66.0031746 29.1650685 66.0571429 28.3212329 66.5428571 27.8465753 66.8126984 27.0554795 67.1904762 26.369863 67.4603175M24.3130137 67.352381L52.5287671 67.352381"/>
      <path stroke-linecap="round" d="M76.5253425,28.9269841 L76.5253425,2.48253968 C76.5253425,1.2952381 75.5760274,0.323809524 74.4157534,0.323809524 L2.37328767,0.323809524 C1.2130137,0.323809524 0.26369863,1.2952381 0.26369863,2.48253968 L0.26369863,48.0857143 L46.3582192,48.0857143"/>
      <polyline stroke-linecap="round" points="72.359 24.771 72.359 4.749 4.377 4.749 4.377 43.66 45.989 43.66"/>
      <path stroke-linecap="round" d="M46.9383562,48.031746 L0.26369863,48.031746 L0.26369863,54.615873 C0.26369863,55.8571429 1.52945205,57.2603175 2.74246575,57.2603175 L46.9383562,57.2603175"/>
      <path stroke-linecap="square" d="M29.9034247 57.4222222L46.8328767 57.3142857C46.9383562 58.9333333 46.6746575 62.6031746 47.0438356 64.384127 47.360274 66.0031746 47.5712329 66.0571429 48.4150685 66.5428571 48.889726 66.8126984 49.6808219 67.1904762 50.3664384 67.4603175M52.4232877 67.352381L24.260274 67.352381"/>
      <path stroke-linecap="round" d="M0.26369863,28.9269841 L0.26369863,2.48253968 C0.26369863,1.2952381 1.2130137,0.323809524 2.37328767,0.323809524 L74.4157534,0.323809524 C75.5760274,0.323809524 76.5253425,1.2952381 76.5253425,2.48253968 L76.5253425,48.0857143 L30.4308219,48.0857143"/>
      <polyline stroke-linecap="round" points="4.377 24.771 4.377 4.749 72.412 4.749 72.412 43.66 30.747 43.66"/>
      <path stroke-linecap="round" d="M29.8506849,48.031746 L76.5253425,48.031746 L76.5253425,54.615873 C76.5253425,55.8571429 75.259589,57.2603175 74.0465753,57.2603175 L29.8506849,57.2603175"/>
    </g>
    <g stroke="#484F59" stroke-linecap="round" stroke-linejoin="round" stroke-width="3" transform="translate(15.295 8.095)">
      <polyline points="14.767 15.435 .475 35.187 5.96 35.187 17.246 19.537"/>
      <polyline points="26.739 24.825 19.988 15.435 14.556 15.435 24.26 28.927"/>
      <polygon points="45.673 .432 32.91 11.549 36.549 11.549 24.102 28.927 29.534 28.927 42.034 11.549 45.567 11.549"/>
    </g>
  </g>
</svg>
