<svg xmlns="http://www.w3.org/2000/svg" width="80" height="82" viewBox="0 0 80 82">
  <g fill="none" fill-rule="evenodd" transform="translate(2 2)">
    <polygon stroke="#FFF" stroke-width="3" points=".472 61.055 .472 28.51 .472 12.157 11.898 .43 43.713 .43 43.713 12.534 43.713 28.51 43.713 61.055"/>
    <polygon stroke="#FFF" stroke-linecap="round" stroke-linejoin="round" stroke-width="3" points="11.898 12.157 .472 12.157 11.898 .43"/>
    <path fill="#07003B" d="M75.5806897,27.8648276 L75.5806897,75.2027586 C75.5806897,76.5475862 74.5324138,77.6234483 73.222069,77.6234483 L33.6496552,77.6234483 C32.3393103,77.6234483 31.2910345,76.5475862 31.2910345,75.2027586 L31.2910345,15.9765517 C31.2910345,14.6317241 32.3393103,13.5558621 33.6496552,13.5558621 L73.222069,13.5558621 C74.5324138,13.5558621 75.5806897,14.6317241 75.5806897,15.9765517 L75.5806897,31.5765517"/>
    <path stroke="#FFF" stroke-linejoin="round" stroke-width="3" d="M75.5806897,27.8648276 L75.5806897,75.2027586 C75.5806897,76.5475862 74.5324138,77.6234483 73.222069,77.6234483 L33.6496552,77.6234483 C32.3393103,77.6234483 31.2910345,76.5475862 31.2910345,75.2027586 L31.2910345,15.9765517 C31.2910345,14.6317241 32.3393103,13.5558621 33.6496552,13.5558621 L73.222069,13.5558621 C74.5324138,13.5558621 75.5806897,14.6317241 75.5806897,15.9765517 L75.5806897,31.5765517"/>
    <polyline stroke="#FFF" stroke-width="3" points="71.754 27.865 71.754 71.599 35.117 71.599 35.117 18.828 71.754 18.828 71.754 31.415"/>
    <path stroke="#FFF" stroke-width="3" d="M51.6275862 74.7724138L55.1917241 74.7724138M52.3613793 16.2993103L54.457931 16.2993103"/>
    <polyline stroke="#FFF" stroke-linecap="round" stroke-width="3" points="54.301 25.982 60.643 32.921 66.985 25.982"/>
    <path stroke="#FFF" stroke-linecap="round" stroke-linejoin="round" stroke-width="3" d="M39.6772414 39L67.1944828 39M39.6772414 44.4868966L67.1944828 44.4868966M39.6772414 49.92L67.1944828 49.92M39.6772414 55.137931L67.1944828 55.137931M39.6772414 60.5710345L67.1944828 60.5710345"/>
    <path stroke="#FFF" stroke-linecap="round" stroke-width="3" d="M48.0110345,6.13241379 L52.9903448,6.13241379 C57.1834483,6.13241379 60.5903448,9.62896552 60.5903448,13.9324138 L60.5903448,30.9848276"/>
  </g>
</svg>
