<svg xmlns="http://www.w3.org/2000/svg" width="80" height="75" viewBox="0 0 80 75">
  <g fill="none" fill-rule="evenodd" transform="translate(2 2)">
    <polyline fill="#FFF" points=".106 54.469 .106 11.273 10.925 11.273 10.925 53.982"/>
    <polyline stroke="#484F59" stroke-linecap="round" stroke-linejoin="round" stroke-width="3" points=".106 54.469 .106 11.273 10.925 11.273 10.925 53.982"/>
    <polyline fill="#FFF" points="38.211 70.892 .106 70.892 .106 54.415 55.153 54.415 55.153 62.653"/>
    <polyline stroke="#484F59" stroke-linecap="round" stroke-linejoin="round" stroke-width="3" points="38.211 70.892 .106 70.892 .106 54.415 55.153 54.415 55.153 62.653"/>
    <polyline fill="#FFF" points="40.797 39.456 40.797 23.576 62.172 23.576 62.172 39.511 71.408 63.9 71.408 70.892 51.036 70.892"/>
    <polyline stroke="#484F59" stroke-linecap="round" stroke-linejoin="round" stroke-width="3" points="40.797 39.456 40.797 23.576 62.172 23.576 62.172 39.511 71.408 63.9 71.408 70.892 51.036 70.892"/>
    <path d="M40.7972222,28.6709924 L62.1722222,28.6709924"/>
    <path stroke="#484F59" stroke-linecap="round" stroke-linejoin="round" stroke-width="3" d="M40.7972222,28.6709924 L62.1722222,28.6709924"/>
    <path d="M40.7972222,38.7519084 L62.1722222,38.7519084"/>
    <path stroke="#484F59" stroke-linecap="round" stroke-linejoin="round" stroke-width="3" d="M40.7972222,38.7519084 L62.1722222,38.7519084"/>
    <path d="M58.9,66.1763359 L71.4083333,66.1763359"/>
    <path stroke="#484F59" stroke-linecap="round" stroke-linejoin="round" stroke-width="3" d="M58.9,66.1763359 L71.4083333,66.1763359"/>
    <path d="M0.105555556,16.9099237 L10.925,16.9099237"/>
    <path stroke="#484F59" stroke-linecap="round" stroke-linejoin="round" stroke-width="3" d="M0.105555556,16.9099237 L10.925,16.9099237"/>
    <path d="M0.105555556,21.6251908 L10.5027778,21.6251908"/>
    <path stroke="#484F59" stroke-linecap="round" stroke-linejoin="round" stroke-width="3" d="M0.105555556,21.6251908 L10.5027778,21.6251908"/>
    <rect width="15.2" height="5.257" x="7.653" y="49.158" fill="#FFF"/>
    <rect width="15.2" height="5.257" x="7.653" y="49.158" stroke="#484F59" stroke-linecap="round" stroke-linejoin="round" stroke-width="3"/>
    <path fill="#FFF" d="M47.3944444,60.2145038 L18.3138889,60.2145038 C17.2583333,60.2145038 16.3083333,59.6183206 15.7805556,58.6969466 C15.2527778,57.7755725 15.2527778,56.6374046 15.7805556,55.7160305 L30.2944444,29.8633588 C30.8222222,28.9419847 31.7722222,28.3458015 32.8277778,28.3458015 C33.8833333,28.3458015 34.8333333,28.9419847 35.3611111,29.8633588 L49.875,55.7160305 C50.4027778,56.6374046 50.4027778,57.7755725 49.875,58.6969466 C49.4,59.6183206 48.3972222,60.2145038 47.3944444,60.2145038"/>
    <path stroke="#484F59" stroke-linecap="round" stroke-linejoin="round" stroke-width="3" d="M47.3944444,60.2145038 L18.3138889,60.2145038 C17.2583333,60.2145038 16.3083333,59.6183206 15.7805556,58.6969466 C15.2527778,57.7755725 15.2527778,56.6374046 15.7805556,55.7160305 L30.2944444,29.8633588 C30.8222222,28.9419847 31.7722222,28.3458015 32.8277778,28.3458015 C33.8833333,28.3458015 34.8333333,28.9419847 35.3611111,29.8633588 L49.875,55.7160305 C50.4027778,56.6374046 50.4027778,57.7755725 49.875,58.6969466 C49.4,59.6183206 48.3972222,60.2145038 47.3944444,60.2145038 Z"/>
    <rect width="71.303" height="5.853" x=".106" y="65.038" fill="#FFF"/>
    <rect width="71.303" height="5.853" x=".106" y="65.038" stroke="#484F59" stroke-linecap="round" stroke-linejoin="round" stroke-width="3"/>
    <path fill="#484F59" fill-rule="nonzero" d="M31.1388889,54.848855 C31.1388889,53.819084 31.8777778,53.0603053 32.8277778,53.0603053 C33.8305556,53.0603053 34.4638889,53.819084 34.4638889,54.848855 C34.4638889,55.878626 33.8305556,56.6916031 32.775,56.6916031 C31.825,56.6916031 31.1388889,55.878626 31.1388889,54.848855 Z M31.8777778,50.6755725 L31.4555556,36.5839695 L34.2,36.5839695 L33.7777778,50.6755725 L31.8777778,50.6755725 Z"/>
    <path stroke="#484F59" stroke-linecap="round" stroke-linejoin="round" stroke-width="3" d="M11.0305556,0.32519084 C15.5694444,0.32519084 15.5694444,6.23282443 20.1083333,6.23282443 C24.6472222,6.23282443 24.6472222,0.32519084 29.1861111,0.32519084 C33.725,0.32519084 33.725,6.23282443 38.2638889,6.23282443 C41.2722222,6.23282443 42.275,3.63129771 43.9638889,1.89694656"/>
    <path stroke="#484F59" stroke-linecap="round" stroke-linejoin="round" stroke-width="3" d="M5.27777778 7.85877863L5.27777778 5.90763359C5.27777778 2.38473282 7.96944444.270992366 11.2944444.270992366L10.925.270992366M59.6916667 12.0320611C64.2305556 12.0320611 64.2305556 17.9396947 68.7694444 17.9396947 72.4111111 17.9396947 73.15 15.0129771 75.6305556 12.6282443"/>
    <path stroke="#484F59" stroke-linecap="round" stroke-linejoin="round" stroke-width="3" d="M53.9388889 19.5656489L53.9388889 17.6145038C53.9388889 14.0916031 56.6305556 11.9778626 59.9555556 11.9778626L59.5861111 11.9778626M51.6166667 12.0320611C53.2 12.0320611 54.2555556 12.7908397 55.1527778 13.7122137"/>
    <path stroke="#484F59" stroke-linecap="round" stroke-linejoin="round" stroke-width="3" d="M45.9166667,19.5656489 L45.9166667,17.6145038 C45.9166667,14.0916031 48.6083333,11.9778626 51.9333333,11.9778626 L51.5638889,11.9778626"/>
  </g>
</svg>
