<svg viewBox="0 0 469.92 158.24" xmlns="http://www.w3.org/2000/svg"><path d="m106.87 133.83.32-.2-.74-.46z"/><path d="m88.64 122.78-20.41 11.95-47.95-28.15v-53.98l47.02-28.81 47.01 28.81v52.39l-10.4 6.65 19.03 11.9 11.65-7.46v-74.83l-67.29-41.25-67.3 41.25v76.93l68.21 40.06 20.07-11.75 8.81 5.53h38.18z"/><path d="m99.53 61.06-32.23 18.13-31.35-18.02v37.02l31.35 18.8 32.23-18.44z" fill="#1a8961"/><path d="m99.53 61.06v-.09l-32.14-18.65-31.44 18.57v.28l31.35 18.02z" fill="#2ea376"/><path d="m244.36 102.9c9.2-9.07 12.74-20.28 10.53-33.33a39.12 39.12 0 0 0 -15.89-25.63 39.81 39.81 0 0 0 -30-6.59 39 39 0 0 0 -26.67 17.33 40.85 40.85 0 0 0 -4.76 32.48c4.61 17.34 19.54 28.64 38 28.77 5.51 0 11.08.06 16.61.06h13 11.72c.47 0 .94 0 1.41-.08h.55l1.4-.09v-10.32h-19.09a25.68 25.68 0 0 0 3.19-2.6zm-43.73-2.57a26.94 26.94 0 0 1 -11.63-17.92c-2.47-14.41 4.21-27.41 16.66-32.41a27.25 27.25 0 0 1 37.22 23.16c.06.78.11 1.55.15 2.18l.05.75c-.05 14.1-8.74 25.45-21.63 28.25a26.8 26.8 0 0 1 -20.82-4.01z"/><path d="m388.74 74.89.5-.26a18 18 0 0 0 9.44-16c.08-6.86-3.23-12.8-8.87-15.88-2.65-1.45-5.76-3-8.95-3.2-7.23-.42-15.79-.57-24.06-.71-3.34-.06-6.57-.12-9.55-.19a1.91 1.91 0 0 0 -1.28.56l-.6.45v75.72l1.08.31.19.07a2.59 2.59 0 0 0 .92.19h7.21 7.57c4.27 0 8.5 0 12.1-.14 5.47-.17 12.57-.89 18.93-5 7.12-4.57 10.25-12.35 8.61-21.33a19.14 19.14 0 0 0 -13.24-14.59zm-2.88-12.18a8.28 8.28 0 0 1 -7.53 6.57c-4.32.5-9.94.67-15.38.83-2 .06-4 .12-5.8.2v-20.43h.64 4.54c1.19 0 2.62 0 4.16.07a104.56 104.56 0 0 1 11.1.45c3.27.44 5.77 1.8 7.23 3.94s1.84 5.08 1.04 8.37zm-28.71 18.34c2.08.1 4.32.17 6.66.24a151.78 151.78 0 0 1 17.52 1.15c6.1 1 9.43 6 8.49 12.77a8.19 8.19 0 0 1 -4.79 6.67 24.92 24.92 0 0 1 -8.6 2.55c-4.16.3-10 .23-15.12.17h-4.16z"/><path d="m469.92 49.81v-11.09h-55.4v77.12h55.25v-11.25h-43.49v-23.25h39.15v-11.31h-39.15v-20.22z"/><path d="m329.85 39.91-.2-1.26h-11.31v14.91 29.15a61.23 61.23 0 0 1 -.71 9.12c-1.32 8.21-6.12 13.29-13.53 14.32-12.3 1.71-21.77-4.11-23.57-14.51a51.31 51.31 0 0 1 -.68-8.23c-.05-10 0-20.14 0-30v-14.71h-11.58l-.13 2c0 .47-.06.89-.06 1.31v9.26 35.36a43.58 43.58 0 0 0 .66 7.43c1.88 10.8 7.49 18.06 16.65 21.58 3.69 1.41 9.29 2 14.24 2 1.6 0 3.13-.07 4.5-.19 11.52-1 19.31-6.55 23.16-16.41a34.17 34.17 0 0 0 2.48-11.53c.22-12 .22-24.19.23-36q0-6.18 0-12.36a4.81 4.81 0 0 0 -.12-1c.01-.02-.01-.15-.03-.24z"/></svg>