<svg xmlns="http://www.w3.org/2000/svg" width="94" height="113" viewBox="0 0 94 113">
  <g fill="none" fill-rule="evenodd">
    <polygon fill="#000" points="74.473 94.909 74.831 94.685 74.003 94.17"/>
    <polygon fill="#000" points="61.597 87.678 47.413 96.211 14.093 76.109 14.093 37.562 46.767 16.989 79.435 37.562 79.435 74.974 72.208 79.723 85.432 88.221 93.527 82.893 93.527 29.457 46.767 0 0 29.457 0 84.393 47.4 113 61.346 104.609 67.468 108.558 94 108.558"/>
    <polygon fill="#1A8961" points="70.5 43.634 47.809 56.69 25.738 43.713 25.738 70.372 47.809 83.911 70.5 70.632"/>
    <polygon fill="#2EA376" points="70.5 44.406 70.5 44.343 47.873 31.327 25.738 44.287 25.738 44.483 47.809 57.059"/>
  </g>
</svg>
