<svg xmlns="http://www.w3.org/2000/svg" viewBox="0 0 469.92 158.24"><defs><style>.cls-1{fill:#fff;}.cls-2{fill:#1a8961;}.cls-3{fill:#2ea376;}</style></defs><title>Ресурс 10</title><g id="Слой_2" data-name="Слой 2"><g id="Layer_2" data-name="Layer 2"><polygon points="106.87 133.83 107.19 133.63 106.45 133.17 106.87 133.83"/><polygon class="cls-1" points="88.64 122.78 68.23 134.73 20.28 106.58 20.28 52.6 67.3 23.79 114.31 52.6 114.31 104.99 103.91 111.64 122.94 123.54 134.59 116.08 134.59 41.25 67.3 0 0 41.25 0 118.18 68.21 158.24 88.28 146.49 97.09 152.02 135.27 152.02 88.64 122.78"/><polygon class="cls-2" points="99.53 61.06 67.3 79.19 35.95 61.17 35.95 98.19 67.3 116.99 99.53 98.55 99.53 61.06"/><polygon class="cls-3" points="99.53 61.06 99.53 60.97 67.39 42.32 35.95 60.89 35.95 61.17 67.3 79.19 99.53 61.06"/><path class="cls-1" d="M244.36,102.9c9.2-9.07,12.74-20.28,10.53-33.33A39.12,39.12,0,0,0,239,43.94a39.81,39.81,0,0,0-30-6.59,39,39,0,0,0-26.67,17.33,40.85,40.85,0,0,0-4.76,32.48c4.61,17.34,19.54,28.64,38,28.77,5.51,0,11.08.06,16.61.06l13,0h11.72c.47,0,.94,0,1.41-.08l.55,0,1.4-.09V105.5H241.17A25.68,25.68,0,0,0,244.36,102.9Zm-43.73-2.57A26.94,26.94,0,0,1,189,82.41C186.53,68,193.21,55,205.66,50a27.25,27.25,0,0,1,37.22,23.16c.06.78.11,1.55.15,2.18l.05.75c-.05,14.1-8.74,25.45-21.63,28.25A26.8,26.8,0,0,1,200.63,100.33Z"/><path class="cls-1" d="M388.74,74.89l.5-.26a18,18,0,0,0,9.44-16c.08-6.86-3.23-12.8-8.87-15.88-2.65-1.45-5.76-3-8.95-3.2-7.23-.42-15.79-.57-24.06-.71-3.34-.06-6.57-.12-9.55-.19a1.91,1.91,0,0,0-1.28.56l-.6.45v75.72l1.08.31.19.07a2.59,2.59,0,0,0,.92.19h0l7.21,0,7.57,0c4.27,0,8.5,0,12.1-.14,5.47-.17,12.57-.89,18.93-5,7.12-4.57,10.25-12.35,8.61-21.33A19.14,19.14,0,0,0,388.74,74.89Zm-2.88-12.18a8.28,8.28,0,0,1-7.53,6.57c-4.32.5-9.94.67-15.38.83-2,.06-4,.12-5.8.2V49.88h.64c1.56,0,3,0,4.54,0,1.19,0,2.62,0,4.16.07a104.56,104.56,0,0,1,11.1.45c3.27.44,5.77,1.8,7.23,3.94S386.66,59.42,385.86,62.71ZM357.15,81.05c2.08.1,4.32.17,6.66.24a151.78,151.78,0,0,1,17.52,1.15c6.1,1,9.43,6,8.49,12.77a8.19,8.19,0,0,1-4.79,6.67,24.92,24.92,0,0,1-8.6,2.55c-4.16.3-10,.23-15.12.17l-4.16,0Z"/><polygon class="cls-1" points="469.92 49.81 469.92 38.72 414.52 38.72 414.52 115.84 469.77 115.84 469.77 104.59 426.28 104.59 426.28 81.34 465.43 81.34 465.43 70.03 426.28 70.03 426.28 49.81 469.92 49.81"/><path class="cls-1" d="M329.85,39.91l-.2-1.26H318.34V53.56c0,9.55,0,19.43,0,29.15a61.23,61.23,0,0,1-.71,9.12c-1.32,8.21-6.12,13.29-13.53,14.32-12.3,1.71-21.77-4.11-23.57-14.51a51.31,51.31,0,0,1-.68-8.23c-.05-10,0-20.14,0-30V38.7H268.27l-.13,2c0,.47-.06.89-.06,1.31v9.26c0,11.59,0,23.57,0,35.36a43.58,43.58,0,0,0,.66,7.43c1.88,10.8,7.49,18.06,16.65,21.58,3.69,1.41,9.29,2,14.24,2,1.6,0,3.13-.07,4.5-.19,11.52-1,19.31-6.55,23.16-16.41a34.17,34.17,0,0,0,2.48-11.53c.22-12,.22-24.19.23-36q0-6.18,0-12.36a4.81,4.81,0,0,0-.12-1C329.89,40.13,329.87,40,329.85,39.91Z"/></g></g></svg>