<svg xmlns="http://www.w3.org/2000/svg" width="148" height="50" viewBox="0 0 148 50">
  <g fill="none" fill-rule="evenodd">
    <polygon fill="#000" points="33.016 42.104 33.117 42.041 32.883 41.896"/>
    <polygon fill="#FFF" points="27.522 38.796 21.185 42.571 6.297 33.677 6.297 16.62 20.896 7.517 35.492 16.62 35.492 33.174 32.263 35.276 38.172 39.036 41.789 36.678 41.789 13.034 20.896 0 0 13.034 0 37.342 21.179 50 27.41 46.287 30.145 48.035 42 48.035"/>
    <polygon fill="#1A8961" points="32 19 21.862 24.835 12 19.035 12 30.95 21.862 37 32 31.065"/>
    <polygon fill="#2EA376" points="32 19.591 32 19.564 21.89 14 12 19.54 12 19.624 21.862 25"/>
    <path fill="#FFF" fill-rule="nonzero" d="M76.8982752 31.8723308C79.8502166 29.012288 80.9860723 25.4774391 80.2769646 21.3623831 79.7447665 18.1070551 77.9086755 15.1965776 75.1784484 13.2804761 72.3818523 11.350254 68.914852 10.601803 65.5525525 11.2024517 62.0395268 11.7462284 58.9278678 13.7332971 56.995131 16.6671199 55.0512233 19.721041 54.49733 23.4353712 55.4678222 26.9090371 56.9470015 32.3768587 61.7374891 35.9400873 67.6606237 35.9810802 69.4285799 35.9810802 71.2157879 36 72.9901614 36L77.161383 36 80.9218997 36C81.0727054 36 81.2235111 36 81.3743168 35.9747736L81.5507915 35.9747736 82 35.9463939 82 32.6921887 75.8747216 32.6921887C76.2376745 32.4462529 76.5799579 32.1720868 76.8982752 31.8723308zM62.8669275 31.0619328C60.8837977 29.7642505 59.5336093 27.7196992 59.1352885 25.4112198 58.3427564 20.867315 60.4861226 16.7680255 64.4808694 15.1913757 67.0595683 14.185124 69.9711844 14.4413919 72.3269014 15.8819496 74.6826184 17.3225072 76.202804 19.776355 76.4233976 22.4944177 76.4426494 22.740375 76.4586926 22.9831791 76.4715271 23.181837L76.4875703 23.4183345C76.4715271 27.8644869 73.6832259 31.443482 69.5472993 32.3264059 67.238315 32.8253057 64.8221741 32.3679741 62.8669275 31.0619328zM122.686919 23.2517464L122.844711 23.171022C124.696682 22.1861644 125.84316 20.2744221 125.823833 18.2033635 125.84908 16.0734799 124.804494 14.2292367 123.024595 13.2729625 122.188295 12.8227684 121.206826 12.3415265 120.20011 12.2794308 117.91843 12.1490298 115.217023 12.102458 112.607136 12.0589909 111.553082 12.0403622 110.533743 12.0217335 109.5933 12 109.441163 12.0056872 109.29685 12.0678028 109.189351 12.173868L109 12.3135834 109 35.8230272 109.340832 35.9192755 109.400793 35.9410091C109.493108 35.97792 109.591506 35.9979125 109.691131 36L111.966498 36 114.355476 36C115.703024 36 117.037949 36 118.174054 35.956533 119.900304 35.9037516 122.140957 35.680207 124.148077 34.4041397 126.395042 32.9852523 127.382823 30.5697283 126.865264 27.78163 126.430006 25.6282217 124.823338 23.8863789 122.686919 23.2517464zM121.778034 19.4701164C121.539288 20.5967068 120.568591 21.4299457 119.40168 21.5099612 118.038353 21.6652005 116.264765 21.7179819 114.547983 21.7676585 113.916813 21.7862872 113.285644 21.8049159 112.717591 21.8297542L112.717591 15.4866753 112.919565 15.4866753C113.411878 15.4866753 113.86632 15.4866753 114.352321 15.4866753 114.727867 15.4866753 115.179153 15.4866753 115.665154 15.5084088 116.83451 15.4938782 118.003824 15.5405158 119.168147 15.6481242 120.20011 15.7847348 120.989072 16.2069858 121.449826 16.8714101 121.91058 17.5358344 122.030502 18.4486417 121.778034 19.4701164zM112.717591 25.164295C113.374007 25.1953428 114.080918 25.2170763 114.819386 25.2388098 116.667861 25.2527651 118.513965 25.3719813 120.348435 25.5958603 122.273503 25.9063389 123.324401 27.4587322 123.027751 29.5606727 122.937434 30.4675813 122.360751 31.2576106 121.516099 31.6315653 120.667545 32.0548055 119.747974 32.3230573 118.802068 32.4232859 117.489235 32.5164295 115.646219 32.494696 114.030424 32.4760673L112.717591 32.4760673 112.717591 25.164295z"/>
    <polygon fill="#FFF" points="148 15.451 148 12 131 12 131 36 147.954 36 147.954 32.499 134.609 32.499 134.609 25.263 146.622 25.263 146.622 21.744 134.609 21.744 134.609 15.451"/>
    <path fill="#FFF" d="M103.95155,12.3987847 L103.886951,12 L100.23385,12 L100.23385,16.7189518 C100.23385,19.7414863 100.23385,22.8684644 100.23385,25.9448031 C100.230964,26.9112074 100.154308,27.8760463 100.004522,28.8312445 C99.5781654,31.4296746 98.0277778,33.0374731 95.6343669,33.3634637 C91.6614987,33.9046715 88.6027132,32.0626662 88.0213178,28.7711103 C87.8768027,27.9100495 87.8033521,27.0389757 87.8016796,26.1663502 C87.7855297,23.0013926 87.8016796,19.7921256 87.8016796,16.6714774 L87.8016796,12.0158248 L84.0613695,12.0158248 L84.0193798,12.6488163 C84.0193798,12.7975693 84,12.9304975 84,13.0634258 L84,15.9941765 C84,19.6623623 84,23.4539815 84,27.1854665 C84.0023418,27.9738504 84.0736624,28.7605859 84.2131783,29.53703 C84.8204134,32.9551842 86.6324289,35.2529434 89.5910853,36.3670085 C90.7829457,36.8132675 92.5917313,37 94.1905685,37 C94.7073643,37 95.2015504,36.9778453 95.6440568,36.9398658 C99.3649871,36.62337 101.881137,34.8668186 103.124677,31.7461704 C103.60552,30.5844586 103.876568,29.3496719 103.925711,28.0969743 C103.99677,24.2990252 103.99677,20.4409419 104,16.703127 C104,15.3991645 104,14.0952019 104,12.7912394 C103.998419,12.6847024 103.985428,12.5786224 103.96124,12.4747436 C103.96447,12.4684137 103.95801,12.4272693 103.95155,12.3987847 Z"/>
  </g>
</svg>
