<svg xmlns="http://www.w3.org/2000/svg" width="79" height="73" viewBox="0 0 79 73">
  <g fill="none" fill-rule="evenodd" transform="translate(2 2)">
    <path fill="#FFF" d="M54.2027778,51.0077519 L2.69166667,51.0077519 C1.21388889,51.0077519 0.0527777778,49.8139535 0.0527777778,48.2945736 L0.0527777778,2.82170543 C0.0527777778,1.30232558 1.21388889,0.108527132 2.69166667,0.108527132 L67.1333333,0.108527132 C68.6111111,0.108527132 69.7722222,1.30232558 69.7722222,2.82170543 L69.7722222,48.2945736 C69.7722222,49.8139535 68.6111111,51.0077519 67.1333333,51.0077519 L50.1388889,51.0077519"/>
    <path stroke="#484F59" stroke-linecap="round" stroke-linejoin="round" stroke-width="2.782" d="M54.2027778,51.0077519 L2.69166667,51.0077519 C1.21388889,51.0077519 0.0527777778,49.8139535 0.0527777778,48.2945736 L0.0527777778,2.82170543 C0.0527777778,1.30232558 1.21388889,0.108527132 2.69166667,0.108527132 L67.1333333,0.108527132 C68.6111111,0.108527132 69.7722222,1.30232558 69.7722222,2.82170543 L69.7722222,48.2945736 C69.7722222,49.8139535 68.6111111,51.0077519 67.1333333,51.0077519 L50.1388889,51.0077519"/>
    <polyline stroke="#484F59" stroke-linecap="round" stroke-linejoin="round" stroke-width="2.782" points="54.203 46.612 6.597 46.612 6.597 4.558 64.019 4.558 64.019 46.612 50.35 46.612"/>
    <path stroke="#484F59" stroke-linecap="round" stroke-linejoin="round" stroke-width="2.782" d="M3.16666667 23.5503876L3.16666667 27.620155M66.7638889 24.3643411L66.7638889 26.8062016"/>
    <path stroke="#484F59" stroke-linecap="round" stroke-linejoin="round" stroke-width="2.782" d="M.211111111.651162791L22.9055556.651162791M.211111111 6.78294574L22.9055556 6.78294574" transform="translate(12.667 34.186)"/>
    <g stroke="#484F59" stroke-linecap="round" stroke-linejoin="round" stroke-width="2.782" transform="translate(40.111 9.767)">
      <path fill="#FFF" d="M26.1777778,46.2868217 C28.0777778,44.8217054 29.8722222,41.5658915 29.8722222,38.9069767 L29.8722222,24.9612403 L29.7138889,21.8682171 C29.7138889,20.2403101 28.3944444,18.8837209 26.8111111,18.8837209 C25.2277778,18.8837209 23.9083333,19.4806202 23.9083333,21.1085271 L23.9083333,20.3488372 C23.9083333,18.7209302 22.5888889,17.3643411 21.0055556,17.3643411 C19.4222222,17.3643411 18.1027778,18.7209302 18.1027778,20.3488372 L18.1027778,18.8294574 C18.1027778,17.2015504 16.7833333,15.8449612 15.2,15.8449612 C13.6166667,15.8449612 12.2972222,17.2015504 12.2972222,18.8294574 L12.2972222,20.5116279 L12.2972222,3.31007752 C12.2972222,1.62790698 10.925,0.217054264 9.28888889,0.217054264 C7.65277778,0.217054264 6.28055556,1.62790698 6.28055556,3.31007752 L6.28055556,33.4806202 L6.22777778,32.0155039 L6.22777778,25.8294574 C6.22777778,23.3333333 4.22222222,21.2713178 1.79444444,21.2713178 L0.316666667,21.2713178 C0.263888889,21.2713178 0.369444444,21.2713178 0.316666667,21.2713178 L0.316666667,26.9689922 L0.316666667,34.5658915 L8.86666667,45.7984496"/>
      <g transform="translate(5.806 45.581)">
        <polyline points="26.811 3.69 26.811 .38 .633 .38 .633 3.69"/>
        <polyline points="29.608 14.217 29.608 4.124 .053 4.124 .053 14.217"/>
      </g>
    </g>
    <g transform="translate(13.722 8.14)">
      <polygon stroke="#484F59" stroke-linecap="round" stroke-linejoin="round" stroke-width="2.782" points="4.169 20.457 .211 8.031 10.503 .326 20.794 8.031 16.889 20.457"/>
      <polygon fill="#484F59" points="8.497 16.605 6.439 16.605 6.439 6.457 8.497 6.457 8.497 10.581 12.244 6.457 14.883 6.457 10.872 10.581 15.147 16.55 12.508 16.55 9.447 12.101 8.497 13.132"/>
    </g>
  </g>
</svg>
