<svg xmlns="http://www.w3.org/2000/svg" width="78" height="79" viewBox="0 0 78 79">
  <g fill="none" fill-rule="evenodd" transform="translate(2 2)">
    <g transform="translate(13.793 10.638)">
      <path stroke="#FFF" stroke-linecap="round" stroke-linejoin="round" stroke-width="3" d="M45.1539526 13.3195429L45.1539526 9.80890465C45.1539526 7.68124507 44.0518249 5.71315997 42.3723923 4.64933018 40.8504065 2.62805359 35.9170732.979117415 29.5142363.340819543L16.3936689.287628054C9.93834977.925925926 5.0574987 2.5748621 3.53551289 4.59613869 1.85608026 5.71315997.753952603 7.5748621.753952603 9.75571316L.753952603 13.2663515M6.9468604 2.52167061L6.9468604 13.3195429M10.2007611 1.35145784L10.2007611 13.3195429M38.9610448 2.52167061L38.9610448 13.3195429M35.7071441 1.35145784L35.7071441 13.3195429" transform="translate(.358 32.053)"/>
      <path stroke="#FFF" stroke-linecap="round" stroke-linejoin="round" stroke-width="3" d="M13.2357724,16.1170213 C13.2357724,23.8829787 17.7492475,30.1595745 23.3123681,30.1595745 C28.8754887,30.1595745 33.3889638,23.8297872 33.3889638,16.1170213"/>
      <path stroke="#FFF" stroke-linecap="round" stroke-linejoin="round" stroke-width="3" d="M10.821588 16.1702128C10.821588 8.19148936 16.3847085 1.64893617 23.3123681 1.64893617 30.1875454 1.64893617 35.8031482 8.13829787 35.8031482 16.1702128M9.24711988 16.5957447L37.3776163 16.5957447"/>
      <rect width="3.306" height="8.883" x="21.633" y=".053" stroke="#FFF" stroke-linecap="round" stroke-linejoin="round" stroke-width="3"/>
      <path stroke="#FFF" stroke-linecap="round" stroke-linejoin="round" stroke-width="3" d="M27.0386092,10.6914894 C27.0386092,12.7659574 25.3591766,14.4680851 23.3123681,14.4680851 C21.2655596,14.4680851 19.586127,12.7659574 19.586127,10.6914894 C19.586127,8.61702128 21.2655596,6.91489362 23.3123681,6.91489362 C25.3591766,6.96808511 27.0386092,8.61702128 27.0386092,10.6914894 Z"/>
      <path fill="#484F59" d="M1.62695035 1.11702128C1.62695035 1.54255319 1.25957447 1.86170213.892198582 1.86170213.524822695 1.86170213.157446809 1.4893617.157446809 1.11702128.157446809.744680851.524822695.372340426.892198582.372340426 1.31205674.372340426 1.62695035.691489362 1.62695035 1.11702128zM14.222695 1.11702128C14.222695 1.54255319 13.8553191 1.86170213 13.4879433 1.86170213 13.0680851 1.86170213 12.7531915 1.4893617 12.7531915 1.11702128 12.7531915.744680851 13.1205674.372340426 13.4879433.372340426 13.9078014.372340426 14.222695.691489362 14.222695 1.11702128z" transform="translate(16.122 9.574)"/>
    </g>
    <g stroke="#FFF" stroke-linecap="round" stroke-linejoin="round">
      <path stroke-width="4" d="M.209929078 31.9148936C1.2070922 15.2659574 14.0652482 1.86170213 30.387234.212765957M37 .212765957C53.2695035 1.86170213 66.0751773 15.212766 67.177305 31.9148936M30.3347518 67.9255319C14.9049645 66.3829787 2.51914894 54.2021277.419858156 38.7234043M66.9148936 38.6702128C64.8680851 54.1489362 52.4822695 66.3297872 37 67.8723404" transform="translate(3.149 3.191)"/>
      <polyline stroke-width="3" points="29.18 .266 34.323 3.138 31.174 8.138"/>
      <polyline stroke-width="3" points="73.948 30.904 70.379 35.691 65.918 31.862"/>
      <polyline stroke-width="3" points="44.243 74.628 39.519 71.064 43.35 66.543"/>
      <polyline stroke-width="3" points=".262 46.33 3.359 41.17 8.135 44.574"/>
    </g>
  </g>
</svg>
