<svg xmlns="http://www.w3.org/2000/svg" width="36" height="49" viewBox="0 0 36 49">
  <path fill="#6DDF76" d="M0,48.5 L0,11.4395 L10.9395,0.5 L36,0.5 L36,48.5 L0,48.5 Z M34.5,47 L34.5,2 L12,2 L12,12.5 L1.5,12.5 L1.5,47 L34.5,47 Z M2.5605,11 L10.5,11 L10.5,3.0605 L2.5605,11 Z M10.55925,30.88025 L22.5,18.9395 L26.5605,23 L14.61975,34.94075 L9.54375,35.95625 L10.55925,30.88025 Z M13.88025,33.55925 L22.1895,25.25 L20.25,23.3105 L11.94075,31.61975 L11.45625,34.04375 L13.88025,33.55925 Z M23.25,24.1895 L24.4395,23 L22.5,21.0605 L21.3105,22.25 L23.25,24.1895 Z"/>
</svg>
