<svg xmlns="http://www.w3.org/2000/svg" width="48" height="48" viewBox="0 0 48 48">
  <path fill="#6DDF76" d="M39,0 L47.25,0 L48,0.75 L48,9 L46.5,9 L46.5,2.5605 L29.5605,19.5 L47.78025,37.71975 L46.71975,38.78025 L9.21975,1.28025 L10.28025,0.21975 L28.5,18.4395 L45.4395,1.5 L39,1.5 L39,0 Z M9,48 L0.75,48 L-3.90798505e-14,47.25 L-3.90798505e-14,39 L1.5,39 L1.5,45.4395 L18.4395,28.5 L0.21975,10.28025 L1.28025,9.21975 L38.90475,46.84425 L37.84425,47.90475 L19.5,29.5605 L2.5605,46.5 L9,46.5 L9,48 Z"/>
</svg>
