<svg xmlns="http://www.w3.org/2000/svg" width="48" height="48" viewBox="0 0 48 48">
  <path fill="#6DDF76" d="M23.97525,46.1655 L33.94575,36.2565 L35.00625,37.37775 L24.5055,48 L23.445,48 L12.96975,37.4025 L14.03025,36.21975 L23.97525,46.1655 Z M23.49375,1.15463195e-14 L24.55425,1.15463195e-14 L35.05425,10.5915 L33.99375,11.74425 L24.024,1.76175 L14.03025,11.7315 L12.96975,10.62225 L23.49375,1.15463195e-14 Z M28.476,23.976 C28.476,26.457 26.45775,28.476 23.976,28.476 C21.49425,28.476 19.476,26.45775 19.476,23.976 C19.476,21.49425 21.49425,19.476 23.976,19.476 C26.45775,19.476 28.476,21.49425 28.476,23.976 Z M20.976,23.976 C20.976,25.62975 22.3215,26.976 23.976,26.976 C25.6305,26.976 26.976,25.6305 26.976,23.976 C26.976,22.3215 25.6305,20.976 23.976,20.976 C22.3215,20.976 20.976,22.3215 20.976,23.976 Z M36.21975,14.03025 L37.3905,12.96975 L48,23.46975 L48,24.53025 L37.3905,35.03025 L36.21975,33.96975 L46.1895,24 L36.21975,14.03025 Z M11.75625,14.00625 L1.78275,23.95125 L11.7495,33.94575 L10.63425,35.00625 L-4.52970994e-14,24.4815 L-4.52970994e-14,23.421 L10.5855,12.94575 L11.75625,14.00625 Z"/>
</svg>
