<svg xmlns="http://www.w3.org/2000/svg" width="48" height="48" viewBox="0 0 48 48">
  <path fill="#6DDF76" d="M39.858,15.20325 L41.04075,18.75 L48,18.75 L48,29.25 L41.04075,29.25 L39.858,32.79675 L44.5605,37.5 L37.5,44.56125 L32.7975,39.85875 L29.25,41.04075 L29.25,48 L18.75,48 L18.75,41.04075 L15.2025,39.858 L10.5,44.5605 L3.4395,37.5 L8.142,32.79675 L6.95925,29.25 L0,29.25 L0,18.75 L6.95925,18.75 L8.142,15.20325 L3.4395,10.5 L10.5,3.4395 L15.2025,8.14125 L18.75,6.95925 L18.75,0 L29.25,0 L29.25,6.95925 L32.7975,8.142 L37.5,3.4395 L44.5605,10.5 L39.858,15.20325 Z M46.5,27.75 L46.5,20.25 L39.95925,20.25 L38.142,14.79675 L42.4395,10.5 L37.5,5.5605 L33.2025,9.85875 L27.75,8.04075 L27.75,1.5 L20.25,1.5 L20.25,8.04075 L14.7975,9.858 L10.5,5.5605 L5.5605,10.5 L9.858,14.79675 L8.04075,20.25 L1.5,20.25 L1.5,27.75 L8.04075,27.75 L9.858,33.20325 L5.5605,37.5 L10.5,42.4395 L14.7975,38.14125 L20.25,39.95925 L20.25,46.5 L27.75,46.5 L27.75,39.95925 L33.2025,38.142 L37.5,42.4395 L42.4395,37.5 L38.142,33.20325 L39.95925,27.75 L46.5,27.75 Z M24,18.75 C26.895,18.75 29.25,21.10575 29.25,24 C29.25,26.89425 26.895,29.25 24,29.25 C21.105,29.25 18.75,26.89425 18.75,24 C18.75,21.10575 21.105,18.75 24,18.75 Z M24,27.75 C26.06775,27.75 27.75,26.06775 27.75,24 C27.75,21.93225 26.06775,20.25 24,20.25 C21.93225,20.25 20.25,21.93225 20.25,24 C20.25,26.06775 21.93225,27.75 24,27.75 Z"/>
</svg>
