<svg xmlns="http://www.w3.org/2000/svg" width="42" height="49" viewBox="0 0 42 49">
  <path fill="#6DDF76" d="M42,30.5 L42,48.5 L0,48.5 L0,30.5 L0.10425,30.5 L4.60425,0.5 L37.39575,0.5 L41.89575,30.5 L42,30.5 Z M5.89575,2 L1.62075,30.5 L13.5,30.5 L13.5,31.25 C13.5,35.3855 16.8645,38.75 21,38.75 C25.1355,38.75 28.5,35.3855 28.5,31.25 L28.5,30.5 L40.3785,30.5 L36.1035,2 L5.89575,2 Z M40.5,47 L40.5,32 L29.96925,32 C29.58675,36.6125 25.71,40.25 21,40.25 C16.29,40.25 12.41325,36.6125 12.03075,32 L1.5,32 L1.5,47 L40.5,47 Z M6,23 L36,23 L36,24.5 L6,24.5 L6,23 Z M7.5,15.5 L34.5,15.5 L34.5,17 L7.5,17 L7.5,15.5 Z M9,8 L33,8 L33,9.5 L9,9.5 L9,8 Z"/>
</svg>
