<svg xmlns="http://www.w3.org/2000/svg" width="32" height="55" viewBox="0 0 32 55">
  <path fill="#D8D8D8" d="M176.636364,3600 C179.109091,3600 181,3601.88158 181,3604.34211 L181,3650.65789 C181,3653.11842 179.109091,3655 176.636364,3655 L153.363636,3655 C151.036364,3655 149,3653.11842 149,3650.65789 L149,3604.34211 C149,3601.88158 151.036364,3600 153.363636,3600 L156.272727,3600 L173.727273,3600 L176.636364,3600 Z M172.272727,3602.89474 L157.727273,3602.89474 L157.727273,3604.34211 C157.727273,3605.21053 158.454545,3605.78947 159.181818,3605.78947 L170.818182,3605.78947 C171.545455,3605.78947 172.272727,3605.21053 172.272727,3604.34211 L172.272727,3602.89474 Z M178.090909,3650.65789 L178.090909,3604.34211 C178.090909,3603.47368 177.363636,3602.89474 176.636364,3602.89474 L175.181818,3602.89474 L175.181818,3604.34211 C175.181818,3606.65789 173.145455,3608.68421 170.818182,3608.68421 L159.181818,3608.68421 C156.854545,3608.68421 154.818182,3606.65789 154.818182,3604.34211 L154.818182,3602.89474 L153.363636,3602.89474 C152.490909,3602.89474 151.909091,3603.47368 151.909091,3604.34211 L151.909091,3650.65789 C151.909091,3651.38158 152.490909,3652.10526 153.363636,3652.10526 L176.636364,3652.10526 C177.363636,3652.10526 178.090909,3651.38158 178.090909,3650.65789 Z M166.018182,3646.75 C166.163636,3646.89474 166.309091,3647.03947 166.309091,3647.18421 C166.454545,3647.32895 166.454545,3647.61842 166.454545,3647.76316 C166.454545,3647.90789 166.454545,3648.19737 166.309091,3648.34211 C166.309091,3648.48684 166.163636,3648.63158 166.018182,3648.77632 C165.872727,3648.92105 165.727273,3648.92105 165.581818,3649.06579 C165.436364,3649.21053 165.145455,3649.21053 165,3649.21053 C164.854545,3649.21053 164.563636,3649.06579 164.418182,3649.06579 C164.272727,3649.06579 164.127273,3648.92105 163.981818,3648.77632 C163.836364,3648.63158 163.690909,3648.48684 163.690909,3648.34211 C163.545455,3648.19737 163.545455,3648.05263 163.545455,3647.76316 C163.545455,3647.47368 163.690909,3647.32895 163.690909,3647.18421 C163.690909,3647.03947 163.836364,3646.89474 163.981818,3646.75 C164.563636,3646.17105 165.436364,3646.17105 166.018182,3646.75 Z M165.353448,3625.64615 C162.715517,3625.64615 160.517241,3623.6 160.517241,3620.82308 C160.517241,3618.19231 162.715517,3616 165.353448,3616 C167.991379,3616 170.189655,3618.19231 170.189655,3620.82308 C170.189655,3623.45385 167.991379,3625.64615 165.353448,3625.64615 Z M165.353448,3618.04615 C163.741379,3618.04615 162.422414,3619.36154 162.422414,3620.96923 C162.422414,3622.57692 163.741379,3623.89231 165.353448,3623.89231 C166.965517,3623.89231 168.284483,3622.57692 168.284483,3620.96923 C168.284483,3619.36154 166.965517,3618.04615 165.353448,3618.04615 Z M165.353448,3626.66923 C169.896552,3626.66923 173.706897,3630.03077 174,3633.97692 C174,3634.56154 173.560345,3635 172.974138,3635 C172.387931,3635 171.948276,3634.56154 171.948276,3633.97692 C171.948276,3630.90769 169.017241,3628.56923 165.5,3628.56923 C161.982759,3628.56923 159.051724,3631.05385 159.051724,3633.97692 C159.051724,3634.56154 158.612069,3635 158.025862,3635 C157.439655,3635 157,3634.56154 157,3633.97692 C157,3629.88462 160.663793,3626.66923 165.353448,3626.66923 Z" transform="translate(-149 -3600)"/>
</svg>
