<svg xmlns="http://www.w3.org/2000/svg" width="54" height="62" viewBox="0 0 54 62">
  <path fill="#D8D8D8" d="M882.469683,3202 C872.844534,3202 865.000167,3209.76679 865.000178,3219.29712 C864.99736,3219.50334 865.028082,3219.70867 865.091165,3219.90522 C865.256452,3225.9719 867.91103,3231.28179 871.035649,3236.20385 C874.261732,3241.28574 878.000681,3246.05484 880.399728,3250.91841 C880.721308,3251.57324 881.388992,3251.99194 882.124346,3251.99988 C882.8597,3252.00783 883.536458,3251.60367 883.872399,3250.95595 C886.391305,3246.09623 890.322157,3241.32366 893.71416,3236.24139 C897.106164,3231.15949 899.999848,3225.67096 899.999848,3219.32715 C900.002932,3219.08347 899.959188,3218.84144 899.870946,3218.61394 C899.499412,3209.40504 891.858926,3202 882.469683,3202 Z M882.466109,3206 C889.942708,3206 895.962353,3212.04401 895.962346,3219.55072 C895.959925,3219.69031 895.97255,3219.82975 896,3219.96662 C895.885062,3225.02993 893.556915,3229.7183 890.419249,3234.48524 C887.766901,3238.51523 884.768135,3242.67616 882.179917,3247 C879.723131,3242.69474 876.892716,3238.54104 874.377406,3234.52305 C871.3162,3229.63318 869.030126,3224.82238 869.030126,3219.58097 C869.03009,3219.46687 869.020009,3219.353 869,3219.24069 C869.167093,3211.88196 875.095341,3206 882.466109,3206 Z M883,3213 C879.709981,3213 877,3215.71 877,3219 C877,3222.29 879.709981,3225 883,3225 C886.290019,3225 889,3222.29 889,3219 C889,3215.71 886.290019,3213 883,3213 Z M883,3217 C884.128259,3217 885,3217.872 885,3219 C885,3220.1284 884.128259,3221 883,3221 C881.871741,3221 881,3220.1284 881,3219 C881,3217.872 881.871741,3217 883,3217 Z M898.778069,3238.00001 C897.84679,3237.99955 897.047696,3238.65873 896.877525,3239.56779 C896.707353,3240.47685 897.214533,3241.37707 898.083789,3241.70887 C901.934788,3243.25755 904.410198,3245.28816 905.479401,3247.15602 C906.548604,3249.02388 906.523632,3250.63809 905.124713,3252.62564 C902.326932,3256.60037 893.395725,3260.12028 883.202001,3260.16324 C873.008188,3260.20544 863.952719,3256.77595 860.992519,3252.79048 C859.512406,3250.79756 859.439005,3249.17202 860.434075,3247.31336 C861.429146,3245.45509 863.813414,3243.40697 867.603293,3241.82875 C868.259233,3241.57691 868.725544,3240.99109 868.82076,3240.29927 C868.915976,3239.60745 868.625057,3238.9189 868.061214,3238.50157 C867.497372,3238.08424 866.749669,3238.00406 866.109077,3238.29222 C861.779117,3240.09525 858.626511,3242.52018 857.023037,3245.51513 C855.419562,3248.50969 855.697081,3252.12471 857.883343,3255.06825 C862.255862,3260.95571 872.222283,3264.04628 883.224641,3263.99948 C894.226901,3263.95344 904.099847,3260.7873 908.294263,3254.82848 C910.391485,3251.84888 910.533562,3248.2231 908.837615,3245.26038 C907.141667,3242.29766 903.916837,3239.91299 899.532725,3238.14986 C899.293839,3238.05017 899.037197,3237.99921 898.778069,3238.00001 Z" transform="translate(-856 -3202)"/>
</svg>
