<svg xmlns="http://www.w3.org/2000/svg" width="54" height="55" viewBox="0 0 54 55">
  <path fill="#D8D8D8" d="M53.9999962,26.9802207 C54.0069423,13.8465813 44.5378034,2.61850181 31.5774752,0.392602751 C18.6171471,-1.83329631 5.93632275,5.59059071 1.54981875,17.9720537 C-2.83668525,30.3535167 2.34734573,44.0902782 13.8253852,50.5001249 C13.815826,51.6902611 14.2825289,52.8349349 15.1218213,53.6798705 C15.9611138,54.5248061 17.1034978,55.0000383 18.2952065,55 L35.7143633,55 C36.906072,55.0000383 38.0484561,54.5248061 38.8877485,53.6798705 C39.727041,52.8349349 40.1937439,51.6902611 40.1841847,50.5001249 C48.7092899,45.7321474 53.992244,36.7384974 53.9999962,26.9802207 Z M30.2705033,32.4290085 C29.425092,31.52377 28.2412692,31.0097642 27.0017971,31.0097642 C25.762325,31.0097642 24.5785021,31.52377 23.7330908,32.4290085 C21.2739357,30.9607148 20.0988921,28.0334121 20.861495,25.2752057 C21.6240978,22.5169992 24.1366807,20.6066467 27.0017971,20.6066467 C29.8669134,20.6066467 32.3794963,22.5169992 33.1420992,25.2752057 C33.904702,28.0334121 32.7296584,30.9607148 30.2705033,32.4290085 Z M37.3517043,26.9802207 C37.3540261,21.9929994 33.7904412,17.7152723 28.8796743,16.8103961 C23.9689074,15.9055199 19.111454,18.6315552 17.3316145,23.2912444 C15.5517749,27.9509337 17.3571396,33.2153858 21.6236698,35.8068988 L19.233391,39.9307896 C13.3858342,36.4511828 10.5861443,29.4990313 12.3930123,22.9448547 C14.1998802,16.3906782 20.168085,11.8494572 26.9749064,11.8494572 C33.7817279,11.8494572 39.7499327,16.3906782 41.5568006,22.9448547 C43.3636686,29.4990313 40.5639787,36.4511828 34.7164219,39.9307896 L32.3261431,35.8068988 C35.4334522,33.9466231 37.3398145,30.5983709 37.3517043,26.9802207 Z M38.6962361,46.7522183 L36.7421832,43.386264 C44.156851,39.0030118 47.7205148,30.2087282 45.4453081,21.9089998 C43.1701013,13.6092713 35.618047,7.85430187 27.0017971,7.85430187 C18.3855472,7.85430187 10.8334928,13.6092713 8.55828608,21.9089998 C6.28307935,30.2087282 9.84674313,39.0030118 17.261411,43.386264 L15.307358,46.7522183 C6.36814144,41.4862828 2.06293849,30.8972784 4.79574217,20.8980256 C7.52854584,10.8987728 16.6233962,3.96259028 27.0017971,3.96259028 C37.380198,3.96259028 46.4750483,10.8987728 49.207852,20.8980256 C51.9406557,30.8972784 47.6354527,41.4862828 38.6962361,46.7522183 Z"/>
</svg>
