<svg xmlns="http://www.w3.org/2000/svg" width="50" height="40" viewBox="0 0 50 40">
  <path fill="#D8D8D8" d="M1.22286769e-07,0.216220896 L1.22286769e-07,2.00726567 L1.22286769e-07,28.2759403 L1.22286769e-07,30.0669851 L1.82926829,30.0669851 L48.1707317,30.0669851 L50,30.0669851 L50,28.2759403 L50,2.00726567 L50,0.216220896 L48.1707317,0.216220896 L1.82926829,0.216220896 L1.22286769e-07,0.216220896 Z M3.65853659,3.79831045 L46.3414634,3.79831045 L46.3414634,26.4848955 L3.65853659,26.4848955 L3.65853659,3.79831045 Z M19.9885671,6.14905672 C19.0946707,6.21859104 18.3270366,7.06521194 18.3307927,7.97741493 L18.3307927,22.305791 C18.3283537,22.3619104 18.3283537,22.417791 18.3307927,22.4736716 C18.3896951,23.078806 18.7670305,23.6420896 19.2989878,23.9191642 C19.8309451,24.1961791 20.5006951,24.178209 21.0175305,23.873194 L33.2126524,16.709009 C33.7507256,16.389009 34.1016768,15.7666806 34.1016768,15.1325075 C34.1016768,14.4983522 33.7507256,13.8760179 33.2126524,13.5560179 L21.0175305,6.39183881 C20.7085366,6.20917015 20.3450244,6.12348657 19.9885671,6.14930149 L19.9885671,6.14905672 Z M21.9131098,11.1117433 L28.753811,15.141594 L21.9131098,19.1527761 L21.9131098,11.1117433 Z M9.75609756,32.4550448 C8.40193902,32.4550448 7.22557317,33.175403 6.59298781,34.2460896 L4.26829268,34.2460896 C3.25801829,34.2460896 2.43902439,35.0479403 2.43902439,36.0371343 C2.43902439,37.0262687 3.25801829,37.8281791 4.26829268,37.8281791 L6.59298781,37.8281791 C7.22557317,38.8988657 8.40193902,39.6192239 9.75609756,39.6192239 C11.1102561,39.6192239 12.286622,38.8988657 12.9192073,37.8281791 L45.7317073,37.8281791 C46.7419817,37.8281791 47.5609756,37.0262687 47.5609756,36.0371343 C47.5609756,35.0479403 46.7419817,34.2460896 45.7317073,34.2460896 L12.9192073,34.2460896 C12.286622,33.175403 11.1102561,32.4550448 9.75609756,32.4550448 Z"/>
</svg>
